<mxfile host="Electron" agent="Mozilla/5.0 (Windows NT 10.0; Win64; x64) AppleWebKit/537.36 (KHTML, like Gecko) draw.io/28.1.2 Chrome/138.0.7204.243 Electron/37.4.0 Safari/537.36" version="28.1.2">
  <diagram name="Page-1" id="UJtQWAghiVEcKe4bV43y">
    <mxGraphModel dx="933" dy="730" grid="1" gridSize="10" guides="1" tooltips="1" connect="1" arrows="1" fold="1" page="1" pageScale="1" pageWidth="850" pageHeight="1100" math="0" shadow="0">
      <root>
        <mxCell id="0" />
        <mxCell id="1" parent="0" />
        <mxCell id="7fWIRevmpxbkSa8B_ajp-3" value="Service - repo&lt;div&gt;&lt;br&gt;&lt;/div&gt;" style="shape=card;whiteSpace=wrap;verticalAlign=top;align=center;html=1;" vertex="1" parent="1">
          <mxGeometry x="40" y="171" width="220" height="650" as="geometry" />
        </mxCell>
        <mxCell id="7fWIRevmpxbkSa8B_ajp-4" value="Bump-Tag - repo" style="shape=card;whiteSpace=wrap;html=1;verticalAlign=top;align=center;" vertex="1" parent="1">
          <mxGeometry x="380" y="170" width="220" height="650" as="geometry" />
        </mxCell>
        <mxCell id="7fWIRevmpxbkSa8B_ajp-5" style="edgeStyle=orthogonalEdgeStyle;rounded=0;orthogonalLoop=1;jettySize=auto;html=1;exitX=0.5;exitY=1;exitDx=0;exitDy=0;exitPerimeter=0;" edge="1" parent="1" source="7fWIRevmpxbkSa8B_ajp-4" target="7fWIRevmpxbkSa8B_ajp-4">
          <mxGeometry relative="1" as="geometry" />
        </mxCell>
        <mxCell id="7fWIRevmpxbkSa8B_ajp-6" value="tag-main.yml" style="rounded=0;whiteSpace=wrap;html=1;verticalAlign=top;" vertex="1" parent="1">
          <mxGeometry x="52.5" y="211" width="155" height="140" as="geometry" />
        </mxCell>
        <mxCell id="7fWIRevmpxbkSa8B_ajp-8" value="bump-tag.yml" style="rounded=0;whiteSpace=wrap;html=1;verticalAlign=top;" vertex="1" parent="1">
          <mxGeometry x="393" y="215" width="195" height="175" as="geometry" />
        </mxCell>
        <mxCell id="7fWIRevmpxbkSa8B_ajp-14" value="config" style="rounded=1;whiteSpace=wrap;html=1;dashed=1;verticalAlign=top;" vertex="1" parent="1">
          <mxGeometry x="65" y="251" width="130" height="80" as="geometry" />
        </mxCell>
        <mxCell id="7fWIRevmpxbkSa8B_ajp-15" value="Branch: main&lt;div&gt;&lt;br&gt;&lt;/div&gt;&lt;div&gt;Token: &amp;lt;github_token&amp;gt;&lt;/div&gt;" style="text;html=1;align=left;verticalAlign=middle;whiteSpace=wrap;rounded=0;" vertex="1" parent="1">
          <mxGeometry x="70" y="279" width="130" height="40" as="geometry" />
        </mxCell>
        <mxCell id="7fWIRevmpxbkSa8B_ajp-24" style="edgeStyle=orthogonalEdgeStyle;rounded=0;orthogonalLoop=1;jettySize=auto;html=1;exitX=0.5;exitY=1;exitDx=0;exitDy=0;entryX=0.5;entryY=0;entryDx=0;entryDy=0;" edge="1" parent="1" source="7fWIRevmpxbkSa8B_ajp-17" target="7fWIRevmpxbkSa8B_ajp-21">
          <mxGeometry relative="1" as="geometry" />
        </mxCell>
        <mxCell id="7fWIRevmpxbkSa8B_ajp-43" style="rounded=0;orthogonalLoop=1;jettySize=auto;html=1;exitX=1;exitY=0.5;exitDx=0;exitDy=0;entryX=0.053;entryY=0.036;entryDx=0;entryDy=0;fontFamily=Helvetica;fontSize=12;fontColor=default;endArrow=none;endFill=0;dashed=1;entryPerimeter=0;" edge="1" parent="1" source="7fWIRevmpxbkSa8B_ajp-17" target="7fWIRevmpxbkSa8B_ajp-41">
          <mxGeometry relative="1" as="geometry" />
        </mxCell>
        <mxCell id="7fWIRevmpxbkSa8B_ajp-44" style="rounded=0;orthogonalLoop=1;jettySize=auto;html=1;exitX=1;exitY=0.5;exitDx=0;exitDy=0;entryX=0.089;entryY=0.996;entryDx=0;entryDy=0;fontFamily=Helvetica;fontSize=12;fontColor=default;dashed=1;endArrow=none;endFill=0;entryPerimeter=0;" edge="1" parent="1" source="7fWIRevmpxbkSa8B_ajp-17" target="7fWIRevmpxbkSa8B_ajp-41">
          <mxGeometry relative="1" as="geometry" />
        </mxCell>
        <mxCell id="7fWIRevmpxbkSa8B_ajp-17" value="checkout: main" style="rounded=1;whiteSpace=wrap;html=1;" vertex="1" parent="1">
          <mxGeometry x="430.5" y="265" width="120" height="30" as="geometry" />
        </mxCell>
        <mxCell id="7fWIRevmpxbkSa8B_ajp-29" style="edgeStyle=orthogonalEdgeStyle;rounded=0;orthogonalLoop=1;jettySize=auto;html=1;exitX=0.5;exitY=1;exitDx=0;exitDy=0;entryX=0.5;entryY=0;entryDx=0;entryDy=0;fontFamily=Helvetica;fontSize=12;fontColor=default;" edge="1" parent="1" source="7fWIRevmpxbkSa8B_ajp-34" target="7fWIRevmpxbkSa8B_ajp-28">
          <mxGeometry relative="1" as="geometry" />
        </mxCell>
        <mxCell id="7fWIRevmpxbkSa8B_ajp-21" value="call bump-tag.ps1" style="rounded=1;whiteSpace=wrap;html=1;" vertex="1" parent="1">
          <mxGeometry x="430.5" y="330" width="120" height="37.5" as="geometry" />
        </mxCell>
        <mxCell id="7fWIRevmpxbkSa8B_ajp-28" value="bump-tag.ps1" style="rounded=0;whiteSpace=wrap;html=1;verticalAlign=top;" vertex="1" parent="1">
          <mxGeometry x="392.5" y="580" width="195" height="230" as="geometry" />
        </mxCell>
        <mxCell id="7fWIRevmpxbkSa8B_ajp-45" style="edgeStyle=orthogonalEdgeStyle;rounded=0;orthogonalLoop=1;jettySize=auto;html=1;exitX=1;exitY=0.75;exitDx=0;exitDy=0;entryX=1;entryY=0.25;entryDx=0;entryDy=0;fontFamily=Helvetica;fontSize=12;fontColor=default;" edge="1" parent="1" source="7fWIRevmpxbkSa8B_ajp-30" target="7fWIRevmpxbkSa8B_ajp-31">
          <mxGeometry relative="1" as="geometry">
            <Array as="points">
              <mxPoint x="570" y="633" />
              <mxPoint x="570" y="660" />
            </Array>
          </mxGeometry>
        </mxCell>
        <mxCell id="7fWIRevmpxbkSa8B_ajp-30" value="get list of tags" style="rounded=1;whiteSpace=wrap;html=1;strokeColor=default;align=center;verticalAlign=top;fontFamily=Helvetica;fontSize=12;fontColor=default;fillColor=default;" vertex="1" parent="1">
          <mxGeometry x="430" y="610" width="120" height="30" as="geometry" />
        </mxCell>
        <mxCell id="7fWIRevmpxbkSa8B_ajp-47" style="edgeStyle=orthogonalEdgeStyle;rounded=0;orthogonalLoop=1;jettySize=auto;html=1;exitX=1;exitY=0.75;exitDx=0;exitDy=0;entryX=1;entryY=0.25;entryDx=0;entryDy=0;fontFamily=Helvetica;fontSize=12;fontColor=default;" edge="1" parent="1" source="7fWIRevmpxbkSa8B_ajp-31" target="7fWIRevmpxbkSa8B_ajp-32">
          <mxGeometry relative="1" as="geometry">
            <Array as="points">
              <mxPoint x="570" y="680" />
              <mxPoint x="570" y="710" />
            </Array>
          </mxGeometry>
        </mxCell>
        <mxCell id="7fWIRevmpxbkSa8B_ajp-31" value="parse tags for latest version" style="rounded=1;whiteSpace=wrap;html=1;strokeColor=default;align=center;verticalAlign=top;fontFamily=Helvetica;fontSize=12;fontColor=default;fillColor=default;" vertex="1" parent="1">
          <mxGeometry x="430.5" y="650" width="120" height="40" as="geometry" />
        </mxCell>
        <mxCell id="7fWIRevmpxbkSa8B_ajp-48" style="edgeStyle=orthogonalEdgeStyle;rounded=0;orthogonalLoop=1;jettySize=auto;html=1;exitX=1;exitY=0.75;exitDx=0;exitDy=0;entryX=1;entryY=0.25;entryDx=0;entryDy=0;fontFamily=Helvetica;fontSize=12;fontColor=default;" edge="1" parent="1" source="7fWIRevmpxbkSa8B_ajp-32" target="7fWIRevmpxbkSa8B_ajp-33">
          <mxGeometry relative="1" as="geometry">
            <Array as="points">
              <mxPoint x="570" y="730" />
              <mxPoint x="570" y="760" />
            </Array>
          </mxGeometry>
        </mxCell>
        <mxCell id="7fWIRevmpxbkSa8B_ajp-32" value="find new highest version" style="rounded=1;whiteSpace=wrap;html=1;strokeColor=default;align=center;verticalAlign=top;fontFamily=Helvetica;fontSize=12;fontColor=default;fillColor=default;" vertex="1" parent="1">
          <mxGeometry x="430.5" y="700" width="120" height="40" as="geometry" />
        </mxCell>
        <mxCell id="7fWIRevmpxbkSa8B_ajp-33" value="create new tag of &amp;lt;branch&amp;gt;" style="rounded=1;whiteSpace=wrap;html=1;strokeColor=default;align=center;verticalAlign=top;fontFamily=Helvetica;fontSize=12;fontColor=default;fillColor=default;" vertex="1" parent="1">
          <mxGeometry x="430.5" y="750" width="120" height="40" as="geometry" />
        </mxCell>
        <mxCell id="7fWIRevmpxbkSa8B_ajp-35" value="" style="edgeStyle=orthogonalEdgeStyle;rounded=0;orthogonalLoop=1;jettySize=auto;html=1;exitX=0.5;exitY=1;exitDx=0;exitDy=0;entryX=0.5;entryY=0;entryDx=0;entryDy=0;fontFamily=Helvetica;fontSize=12;fontColor=default;" edge="1" parent="1" source="7fWIRevmpxbkSa8B_ajp-21" target="7fWIRevmpxbkSa8B_ajp-34">
          <mxGeometry relative="1" as="geometry">
            <mxPoint x="491" y="368" as="sourcePoint" />
            <mxPoint x="490" y="490" as="targetPoint" />
          </mxGeometry>
        </mxCell>
        <mxCell id="7fWIRevmpxbkSa8B_ajp-34" value="Dockerfile" style="rounded=0;whiteSpace=wrap;html=1;strokeColor=default;align=center;verticalAlign=top;fontFamily=Helvetica;fontSize=12;fontColor=default;fillColor=default;" vertex="1" parent="1">
          <mxGeometry x="410.5" y="430" width="160" height="90" as="geometry" />
        </mxCell>
        <mxCell id="7fWIRevmpxbkSa8B_ajp-36" value="entrypoint: bump-tag.ps1" style="rounded=1;whiteSpace=wrap;html=1;strokeColor=default;align=center;verticalAlign=top;fontFamily=Helvetica;fontSize=12;fontColor=default;fillColor=default;dashed=1;" vertex="1" parent="1">
          <mxGeometry x="419.25" y="470" width="142.5" height="30" as="geometry" />
        </mxCell>
        <mxCell id="7fWIRevmpxbkSa8B_ajp-37" style="edgeStyle=orthogonalEdgeStyle;rounded=0;orthogonalLoop=1;jettySize=auto;html=1;exitX=1.009;exitY=0.699;exitDx=0;exitDy=0;entryX=0;entryY=0.5;entryDx=0;entryDy=0;fontFamily=Helvetica;fontSize=12;fontColor=default;exitPerimeter=0;" edge="1" parent="1" source="7fWIRevmpxbkSa8B_ajp-3" target="7fWIRevmpxbkSa8B_ajp-30">
          <mxGeometry relative="1" as="geometry" />
        </mxCell>
        <mxCell id="7fWIRevmpxbkSa8B_ajp-38" style="edgeStyle=orthogonalEdgeStyle;rounded=0;orthogonalLoop=1;jettySize=auto;html=1;exitX=0;exitY=0.5;exitDx=0;exitDy=0;entryX=1.004;entryY=0.922;entryDx=0;entryDy=0;entryPerimeter=0;fontFamily=Helvetica;fontSize=12;fontColor=default;" edge="1" parent="1" source="7fWIRevmpxbkSa8B_ajp-33" target="7fWIRevmpxbkSa8B_ajp-3">
          <mxGeometry relative="1" as="geometry" />
        </mxCell>
        <mxCell id="7fWIRevmpxbkSa8B_ajp-39" style="edgeStyle=orthogonalEdgeStyle;rounded=0;orthogonalLoop=1;jettySize=auto;html=1;exitX=1;exitY=0.25;exitDx=0;exitDy=0;entryX=0.006;entryY=0.176;entryDx=0;entryDy=0;entryPerimeter=0;fontFamily=Helvetica;fontSize=12;fontColor=default;" edge="1" parent="1" source="7fWIRevmpxbkSa8B_ajp-6" target="7fWIRevmpxbkSa8B_ajp-8">
          <mxGeometry relative="1" as="geometry" />
        </mxCell>
        <mxCell id="7fWIRevmpxbkSa8B_ajp-41" value="NOTE" style="rounded=1;whiteSpace=wrap;html=1;align=left;verticalAlign=top;fontFamily=Helvetica;fontSize=12;fillColor=light-dark(#6a00ff, #2d006b);fontColor=#ffffff;strokeColor=#3700CC;spacingLeft=5;" vertex="1" parent="1">
          <mxGeometry x="630" y="198.5" width="200" height="185" as="geometry" />
        </mxCell>
        <mxCell id="7fWIRevmpxbkSa8B_ajp-42" value="Callable github actions always perform under the context of the calling repository.&lt;br&gt;&lt;br&gt;For example: if no repository is specified for git checkout, it will checkout `Service - repo` by default and not `bump-tag - repo`." style="text;html=1;align=left;verticalAlign=top;whiteSpace=wrap;rounded=0;fontFamily=Helvetica;fontSize=12;fontColor=default;" vertex="1" parent="1">
          <mxGeometry x="640" y="227.25" width="180" height="142.75" as="geometry" />
        </mxCell>
        <mxCell id="7fWIRevmpxbkSa8B_ajp-49" style="edgeStyle=orthogonalEdgeStyle;rounded=0;orthogonalLoop=1;jettySize=auto;html=1;entryX=0;entryY=0.5;entryDx=0;entryDy=0;fontFamily=Helvetica;fontSize=12;fontColor=default;" edge="1" parent="1" target="7fWIRevmpxbkSa8B_ajp-17">
          <mxGeometry relative="1" as="geometry">
            <mxPoint x="260" y="280" as="sourcePoint" />
          </mxGeometry>
        </mxCell>
      </root>
    </mxGraphModel>
  </diagram>
</mxfile>
